PathFileType	4	(X/Y/Z)	D:\TRACE\v60_Jaco2_6-2-23\ArmBody_Mo2_DMP_1-v60.trc
DataRate	CameraRate	NumFrames	NumMarkers	Units	OrigDataRate	OrigDataStartFrame	OrigNumFrames
100.00	100.00	      35	9	mm	100.00	1	      6551
Frame#	Time	front left toe			Front right toe			aft left toe			aft right toe			Arm			FL body			FR body			AL Body			AR Body			
		X1	Y1	Z1	X2	Y2	Z2	X3	Y3	Z3	X4	Y4	Z4	X5	Y5	Z5	X6	Y6	Z6	X7	Y7	Z7	X8	Y8	Z8	X9	Y9	Z9	

1	0.000	-143.93896	21.91625	-215.85681	259.06537	19.25204	-224.58580	-138.90869	13.80905	409.82062	256.33719	18.68081	389.77386	66.70872	1212.16199	-247.00844	-23.51867	580.05475	-352.11417	135.05554	582.43042	-352.75165	-9.65146	585.15448	593.77728	143.40767	574.09308	592.65601	
2	0.010	-143.96701	21.89947	-215.88316	259.15222	19.31649	-224.50255	-138.89886	13.82759	409.78574	256.27768	18.68157	389.81375	66.70879	1212.15735	-247.02237	-23.57187	580.09546	-352.12210	135.09343	582.42511	-352.77670	-9.65668	585.15131	593.77356	143.39920	574.10034	592.64233	
3	0.020	-143.95721	21.90710	-215.91322	259.16568	19.30442	-224.49471	-138.90901	13.82347	409.82092	256.36057	18.73179	389.83231	66.77412	1212.16919	-247.01488	-23.53648	580.08795	-352.11108	135.15923	582.40179	-352.72751	-9.65660	585.17822	593.77130	143.41135	574.11127	592.66071	
4	0.030	-143.96483	21.91220	-215.86671	259.08746	19.30876	-224.50851	-138.90042	13.82147	409.83517	256.30106	18.73081	389.81430	66.79481	1212.18372	-246.99529	-23.53074	580.09216	-352.12128	135.13115	582.40594	-352.78915	-9.68019	585.22656	593.76617	143.38972	574.09564	592.65710	
5	0.040	-144.00565	21.93203	-215.89450	259.22336	19.34676	-224.47705	-138.94797	13.85553	409.77573	256.41025	18.74980	389.83121	66.83515	1212.15442	-246.99341	-23.50961	580.07361	-352.13077	135.08769	582.43292	-352.75397	-9.66369	585.18420	593.76996	143.39845	574.10046	592.63550	
6	0.050	-144.01924	21.94495	-215.89177	259.04810	19.23298	-224.56665	-138.96655	13.86001	409.79861	256.29111	18.71612	389.83923	66.77534	1212.14941	-247.05371	-23.50620	580.07477	-352.12250	135.13704	582.38367	-352.74933	-9.69437	585.17889	593.76251	143.37138	574.09192	592.65265	
7	0.060	-143.99480	21.93114	-215.89526	259.05502	19.28580	-224.55396	-138.91225	13.79048	409.86273	256.34006	18.73198	389.84222	66.80784	1212.15515	-247.02078	-23.50135	580.08832	-352.13544	135.16147	582.40405	-352.79944	-9.70592	585.20380	593.76434	143.41753	574.10834	592.63440	
8	0.070	-143.97360	21.92839	-215.89575	259.07932	19.31732	-224.52820	-138.91560	13.82546	409.80981	256.38666	18.72732	389.78903	66.78255	1212.16553	-247.02167	-23.50665	580.09772	-352.13806	135.11792	582.42157	-352.77209	-9.69885	585.19672	593.76361	143.42061	574.09149	592.65509	
9	0.080	-143.98328	21.94099	-215.86392	259.07822	19.24543	-224.55626	-138.94691	13.83463	409.80789	256.33502	18.70128	389.78082	66.82256	1212.14551	-247.00459	-23.50220	580.10278	-352.13779	135.17993	582.38837	-352.74911	-9.68977	585.19904	593.75146	143.41148	574.09222	592.65985	
10	0.090	-144.00557	21.94124	-215.91251	259.15668	19.26567	-224.49940	-138.91864	13.82383	409.81665	256.39047	18.69861	389.85892	66.85883	1212.15503	-247.02917	-23.48862	580.07684	-352.15683	135.17229	582.39154	-352.78836	-9.72002	585.20721	593.75537	143.39940	574.09955	592.63696	
11	0.100	-143.97336	21.94383	-215.89003	259.13202	19.27809	-224.52904	-138.92105	13.84200	409.80240	256.31888	18.73504	389.81509	66.86238	1212.16760	-247.05928	-23.49874	580.08276	-352.13599	135.37392	582.31641	-352.70560	-9.74711	585.26715	593.75671	143.40591	574.09039	592.64948	
12	0.110	-144.00356	21.92573	-215.88632	259.08234	19.28854	-224.54166	-138.92252	13.86611	409.78979	256.28580	18.70005	389.80130	66.90627	1212.13416	-246.99989	-23.48444	580.07996	-352.13629	135.59746	582.54028	-353.04828	-9.71310	585.25513	593.77637	143.39265	574.09735	592.62836	
13	0.120	-143.99178	21.94992	-215.87375	259.05542	19.27013	-224.57858	-138.91885	13.81875	409.81924	256.28241	18.69082	389.81421	66.86230	1212.17004	-247.03271	-23.48576	580.10071	-352.13708	135.20615	582.39722	-352.76743	-9.75329	585.24603	593.71472	143.40150	574.10132	592.64941	
14	0.130	-144.01651	21.93065	-215.90198	259.11475	19.34703	-224.50648	-138.93707	13.83393	409.80341	256.35278	18.72388	389.82214	66.86945	1212.18176	-247.03067	-23.46485	580.07813	-352.15271	135.18217	582.40161	-352.79739	-9.70845	585.26843	593.75317	143.37674	574.07928	592.63354	
15	0.140	-144.00954	21.93656	-215.88095	259.03192	19.28080	-224.54813	-138.89978	13.80592	409.84735	256.33871	18.73393	389.84857	66.89104	1212.19409	-247.04692	-23.48427	580.08246	-352.15216	135.21106	582.35712	-352.77475	-9.71346	585.23834	593.75629	143.39467	574.09338	592.64636	
16	0.150	-143.98755	21.92812	-215.89723	259.18137	19.29373	-224.53337	-138.92865	13.84449	409.78577	256.39377	18.72780	389.83408	66.88303	1212.16821	-247.04568	-23.46891	580.08942	-352.12650	135.64227	582.51355	-353.08261	-9.63668	585.24292	593.73547	143.38525	574.09119	592.64520	
17	0.160	-143.97453	21.94077	-215.85092	259.09714	19.31390	-224.54140	-138.89879	13.82708	409.84766	256.34561	18.71386	389.84100	66.90269	1212.17322	-247.03894	-23.46122	580.08362	-352.14609	135.25450	582.34686	-352.79688	-9.72701	585.24481	593.72937	143.39804	574.07996	592.64697	
18	0.170	-143.99500	21.93989	-215.87309	259.13168	19.28721	-224.49969	-138.94598	13.83608	409.81323	256.36795	18.70092	389.78485	66.92166	1212.15259	-247.06686	-23.46571	580.09113	-352.14008	135.28465	582.34625	-352.79843	-9.68581	585.26416	593.75348	143.42247	574.11206	592.65070	
19	0.180	-143.97668	21.93818	-215.89264	259.10614	19.30226	-224.50424	-138.91417	13.82236	409.84106	256.29227	18.70884	389.81015	66.99828	1212.11401	-247.01826	-23.45532	580.06696	-352.14655	135.26817	582.38940	-352.78439	-9.71018	585.22687	593.75696	143.37901	574.07837	592.64954	
20	0.190	-143.98582	21.93056	-215.91063	259.06805	19.29917	-224.53993	-138.89127	13.82907	409.81375	256.30554	18.67611	389.81039	67.00951	1212.13623	-247.00868	-23.44592	580.08209	-352.16293	135.28336	582.36652	-352.78998	-9.68868	585.23169	593.76056	143.38025	574.09650	592.62567	
21	0.200	-143.99084	21.95069	-215.88686	259.11383	19.27870	-224.52029	-138.92557	13.84710	409.79391	256.34686	18.69877	389.83121	66.93442	1212.14539	-247.04314	-23.42244	580.07172	-352.18027	135.29085	582.33545	-352.78265	-9.67939	585.24915	593.76782	143.39778	574.11432	592.62000	
22	0.210	-143.97398	21.91890	-215.91353	259.07220	19.25698	-224.59338	-138.95068	13.85690	409.81793	256.41541	18.74756	389.82281	66.99366	1212.17847	-247.07108	-23.43062	580.07001	-352.14188	135.35272	582.33258	-352.78812	-9.72715	585.24121	593.74768	143.39525	574.08258	592.64496	
23	0.220	-143.97891	21.91930	-215.88889	259.08972	19.30129	-224.53960	-138.91458	13.84106	409.80322	256.32297	18.72492	389.80939	67.02312	1212.17419	-247.05061	-23.39575	580.06580	-352.15555	135.47980	582.26257	-352.74225	-9.62769	585.24420	593.71027	143.42581	574.10693	592.64813	
24	0.230	-143.94385	21.92292	-215.90552	259.14615	19.25779	-224.51912	-138.92023	13.84049	409.80417	256.37131	18.73139	389.84549	67.05429	1212.13855	-247.02454	-23.41937	580.09509	-352.16513	135.31284	582.34839	-352.81296	-9.64553	585.22662	593.73712	143.39563	574.10236	592.62708	
25	0.240	-143.97163	21.91083	-215.92000	259.08932	19.29347	-224.50648	-138.92076	13.83589	409.80569	256.30637	18.70997	389.85498	67.00941	1212.14795	-247.05725	-23.40652	580.07898	-352.17224	135.31589	582.34662	-352.83508	-9.62818	585.22406	593.74170	143.39587	574.10144	592.62750	
26	0.250	-143.98308	21.94257	-215.89626	259.08740	19.34816	-224.47913	-138.93242	13.81866	409.79880	256.29514	18.69271	389.78748	67.06144	1212.16833	-247.03818	-23.39637	580.07898	-352.17139	135.36703	582.36096	-352.82144	-9.64410	585.24915	593.73883	143.40150	574.09705	592.64728	
27	0.260	-143.97612	21.93944	-215.89484	259.13321	19.28666	-224.50475	-138.90744	13.84210	409.78113	256.25687	18.70124	389.81686	67.04763	1212.16321	-247.08510	-23.39499	580.07489	-352.18369	135.38481	582.31860	-352.79822	-9.63514	585.25128	593.75586	143.41196	574.12006	592.64709	
28	0.270	-143.95450	21.92285	-215.92532	259.11563	19.30161	-224.52258	-138.92773	13.84798	409.80145	256.36951	18.73875	389.81985	67.19851	1212.16711	-247.00478	-23.38211	580.06769	-352.17377	135.40126	582.33130	-352.79498	-9.65242	585.30853	593.71130	143.41107	574.12122	592.63690	
29	0.280	-143.99739	21.93614	-215.91460	259.12610	19.30592	-224.48743	-138.90916	13.85861	409.79968	256.37823	18.72930	389.83386	67.12375	1212.15845	-247.07428	-23.39036	580.07306	-352.17276	135.34381	582.31415	-352.83084	-9.70113	585.31311	593.70270	143.43256	574.11639	592.62415	
30	0.290	-143.98488	21.94837	-215.90436	259.14893	19.32170	-224.52789	-138.91060	13.84182	409.78543	256.31036	18.72141	389.84720	67.09531	1212.16235	-247.10030	-23.35749	580.07306	-352.17300	135.42673	582.31030	-352.80191	-9.64974	585.31226	593.71326	143.42348	574.10260	592.62524	
31	0.300	-143.96033	21.93119	-215.88161	259.16800	19.29534	-224.47627	-138.90501	13.81886	409.81140	256.28595	18.69894	389.80038	67.14843	1212.12244	-247.03761	-23.34987	580.06219	-352.20422	135.41306	582.32123	-352.84625	-9.61907	585.25330	593.73370	143.40457	574.10809	592.63239	
32	0.310	-143.96956	21.92575	-215.93309	259.06097	19.27545	-224.56067	-138.89334	13.82793	409.82300	256.34946	18.73382	389.84152	67.19804	1212.15271	-247.06549	-23.34770	580.06537	-352.19928	135.43178	582.29480	-352.83749	-9.60379	585.25885	593.74481	143.39680	574.11383	592.61591	
33	0.320	-143.98465	21.92987	-215.91089	259.21109	19.35194	-224.45424	-138.90324	13.83286	409.81546	256.35291	18.70707	389.83728	67.17152	1212.14832	-247.09291	-23.35680	580.06476	-352.18500	135.45593	582.31671	-352.83206	-9.68118	585.35895	593.70825	143.43141	574.11646	592.62903	
34	0.330	-144.00908	21.92439	-215.91757	259.15952	19.32453	-224.53316	-138.95908	13.88745	409.77774	256.40442	18.74514	389.81747	67.22044	1212.15942	-247.08272	-23.32009	580.02765	-352.19379	135.42671	582.29816	-352.84857	-9.65379	585.39685	593.67377	143.45805	574.12427	592.61877	
35	0.340	-143.99565	21.93160	-215.90448	259.06577	19.29339	-224.56560	-138.94870	13.85694	409.78946	256.37726	18.73639	389.80811	67.24726	1212.13318	-247.11389	-23.29998	580.03662	-352.20575	135.48268	582.27515	-352.85495	-9.64049	585.40179	593.69104	143.45654	574.12323	592.62769	
